<svg width="36" height="36" viewBox="0 0 36 36" fill="none" xmlns="http://www.w3.org/2000/svg">
<path d="M32.2753 11.9039L11.1952 0.909545C10.0545 0.310533 8.75982 -0.00326454 7.44264 2.56087e-05C6.12545 0.00331575 4.83269 0.323576 3.69565 0.928278C2.55862 1.53298 1.61782 2.40058 0.96881 3.44296C0.319803 4.48533 -0.014289 5.66535 0.000468544 6.86315V28.9312C0.000468544 30.7312 0.786761 32.4575 2.18637 33.7304C3.58598 35.0032 5.48426 35.7183 7.4636 35.7183C8.77388 35.7162 10.0606 35.4015 11.1952 34.8054L32.2753 23.8111C33.4079 23.2149 34.3483 22.3583 35.0021 21.3273C35.6559 20.2963 36 19.127 36 17.9368C36 16.7467 35.6559 15.5774 35.0021 14.5464C34.3483 13.5154 33.4079 12.6588 32.2753 12.0626V11.9039ZM30.0931 20.2191L9.01297 31.3721C8.54049 31.6156 8.00668 31.7436 7.4636 31.7436C6.92053 31.7436 6.38672 31.6156 5.91424 31.3721C5.44309 31.1248 5.05187 30.7689 4.77989 30.3404C4.50792 29.912 4.36478 29.4259 4.36487 28.9312V6.78376C4.36478 6.28901 4.50792 5.80296 4.77989 5.37447C5.05187 4.94598 5.44309 4.59016 5.91424 4.34279C6.38866 4.10297 6.92088 3.97345 7.4636 3.96573C8.00595 3.97585 8.53755 4.10522 9.01297 4.34279L30.0931 15.4165C30.5644 15.6638 30.9558 16.0195 31.2279 16.448C31.5001 16.8765 31.6433 17.3626 31.6433 17.8575C31.6433 18.3523 31.5001 18.8384 31.2279 19.2669C30.9558 19.6954 30.5644 20.0512 30.0931 20.2984V20.2191Z" fill="white"/>
</svg>
